<?xml version="1.0" encoding="utf-8"?>
<!-- Generator: Adobe Illustrator 17.0.0, SVG Export Plug-In . SVG Version: 6.00 Build 0)  -->
<!DOCTYPE svg PUBLIC "-//W3C//DTD SVG 1.1//EN" "http://www.w3.org/Graphics/SVG/1.1/DTD/svg11.dtd">
<svg version="1.1" id="Calque_1" xmlns="http://www.w3.org/2000/svg" xmlns:xlink="http://www.w3.org/1999/xlink" x="0px" y="0px"
	 width="500px" height="500px" viewBox="0 0 500 500" enable-background="new 0 0 500 500" xml:space="preserve">
<g>
	<path fill="#2F2583" d="M0.557,264.658c-1.278-2.411-0.286-5.527,2.265-6.662c2.551-1.276,5.527-0.284,6.805,2.127
		c3.4,6.943,11.054,8.078,15.308,8.078c3.539,0,11.617-0.851,11.617-8.789c0-5.384-3.968-7.227-14.03-10.487
		c-3.4-1.133-6.8-2.268-10.201-3.827C7.357,242.69,0.7,238.296,0.7,228.517c0-10.346,9.352-18.281,21.822-18.281
		c10.63,0,18.851,5.243,21.97,14.03c0.992,2.692-0.424,5.527-2.976,6.519c-2.694,0.851-5.527-0.424-6.519-3.119
		c-1.702-4.676-6.238-7.368-12.475-7.368c-3.543,0-6.657,0.992-8.784,2.692c-1.278,0.992-2.976,2.835-2.976,5.527
		c0,3.119,0.992,5.103,5.952,7.511c2.69,1.276,5.952,2.268,9.776,3.543c4.397,1.419,9.07,2.976,12.614,5.527
		c5.103,3.543,7.654,8.362,7.654,14.314c0,6.662-2.976,11.905-8.36,15.308c-4.96,3.116-10.63,3.543-13.463,3.543
		C13.738,278.264,4.949,273.302,0.557,264.658z"/>
	<path fill="#2F2583" d="M108.695,215.196v73.696c0,13.181-10.773,23.952-23.954,23.952c-13.038,0-23.811-9.354-23.811-22.533
		c0-2.692,2.27-4.962,5.103-4.962c2.837,0,5.103,2.27,5.103,4.962c0,7.652,6.095,12.33,13.606,12.33
		c7.654,0,13.749-6.095,13.749-13.749v-15.873c-3.686,3.26-8.503,5.246-13.749,5.246c-13.038,0-23.811-10.63-23.811-23.811v-39.257
		c0-2.692,2.27-4.96,5.103-4.96c2.837,0,5.103,2.268,5.103,4.96v39.257c0,7.654,6.095,13.749,13.606,13.749
		c7.654,0,13.749-4.395,13.749-12.048v-40.957c0-2.692,2.265-4.96,5.103-4.96C106.425,210.236,108.695,212.504,108.695,215.196z"/>
	<path fill="#2F2583" d="M176.866,234.045v39.257c0,2.694-2.27,4.962-4.964,4.962c-2.833,0-5.098-2.268-5.098-4.962v-39.257
		c0-7.654-6.095-13.746-13.749-13.746c-7.511,0-13.749,4.392-13.749,12.046v40.957c0,2.694-2.265,4.962-4.96,4.962
		c-2.833,0-5.103-2.268-5.103-4.962v-58.106c0-2.692,2.27-4.96,5.103-4.96c2.694,0,4.96,2.268,4.96,4.96v0.284
		c3.262-3.26,8.503-5.243,13.749-5.243C166.237,210.236,176.866,220.863,176.866,234.045z"/>
	<path fill="#2F2583" d="M193.872,254.169v-19.841c0-13.181,10.63-24.092,23.811-24.092c11.903,0,21.822,9.07,23.525,20.265
		c0.424,2.835-1.416,5.386-4.111,5.811c-2.833,0.424-5.384-1.416-5.809-4.251c-1.135-6.803-6.805-11.762-13.606-11.762
		c-7.511,0-13.749,6.376-13.749,14.03v19.841c0,7.654,6.238,14.032,13.749,14.032c6.8,0,12.471-4.962,13.606-11.765
		c0.424-2.835,2.976-4.676,5.809-4.251c2.694,0.424,4.535,3.119,4.111,5.811c-1.841,11.905-12.471,20.268-23.525,20.268
		C204.502,278.264,193.872,267.491,193.872,254.169z"/>
	<path fill="#2F2583" d="M256.23,254.312v-20.268c0-13.181,10.63-23.809,23.811-23.809s23.811,10.627,23.811,23.809v20.268
		c0,13.179-10.63,23.952-23.811,23.952S256.23,267.491,256.23,254.312z M266.292,234.045v20.268c0,7.652,6.238,13.746,13.749,13.746
		c7.654,0,13.749-6.095,13.749-13.746v-20.268c0-7.511-6.095-13.746-13.749-13.746C272.53,220.298,266.292,226.534,266.292,234.045z
		"/>
	<path fill="#2F2583" d="M358.417,215.479v-34.865c0-2.692,2.265-4.96,5.103-4.96c2.69,0,4.96,2.268,4.96,4.96v92.547
		c0,2.835-2.27,5.103-4.96,5.103c-2.837,0-5.103-2.268-5.103-5.103v-0.284c-3.829,3.26-8.503,5.386-13.749,5.386
		c-13.181,0-23.811-10.773-23.811-23.952v-20.268c0-13.181,10.63-23.809,23.811-23.809
		C349.914,210.236,354.588,212.22,358.417,215.479z M330.92,254.312c0,7.652,6.238,13.746,13.749,13.746
		c7.654,0,13.749-4.392,13.749-12.046v-23.668c0-7.654-6.095-12.046-13.749-12.046c-7.511,0-13.749,6.092-13.749,13.746V254.312z"/>
	<path fill="#2F2583" d="M436.793,234.328v9.779c0,2.694-2.27,4.96-5.103,4.96h-32.457v5.386c0,7.511,6.095,13.749,13.749,13.749
		c5.241,0,10.205-3.119,12.328-7.938c1.278-2.551,4.254-3.684,6.805-2.551c2.551,1.276,3.543,4.251,2.408,6.803
		c-3.825,8.362-12.328,13.749-21.541,13.749c-13.181,0-23.954-10.63-23.954-23.811v-20.408c0-13.038,10.773-23.809,23.954-23.809
		C426.021,210.236,436.793,221.006,436.793,234.328z M399.234,239.004h27.354v-4.96c0-7.511-6.095-13.746-13.606-13.746
		c-7.654,0-13.749,6.235-13.749,13.746V239.004z"/>
	<path fill="#2F2583" d="M452.383,254.312v-20.268c0-13.181,10.63-23.809,23.811-23.809c13.177,0,23.806,10.627,23.806,23.809
		v20.268c0,13.179-10.63,23.952-23.806,23.952C463.013,278.264,452.383,267.491,452.383,254.312z M462.445,234.045v20.268
		c0,7.652,6.238,13.746,13.749,13.746c7.649,0,13.744-6.095,13.744-13.746v-20.268c0-7.511-6.095-13.746-13.744-13.746
		C468.683,220.298,462.445,226.534,462.445,234.045z"/>
</g>
<path fill="#6B75B5" d="M400.226,187.984l20.549-9.922c2.413-1.276,5.527-0.284,6.805,2.127c1.273,2.551,0.143,5.527-2.27,6.803
	l-20.549,10.062c-2.551,1.276-5.67,0.284-6.8-2.268C396.682,192.379,397.674,189.26,400.226,187.984z"/>
</svg>
