<?xml version="1.0" encoding="utf-8"?>
<!-- Generator: Adobe Illustrator 17.0.0, SVG Export Plug-In . SVG Version: 6.00 Build 0)  -->
<!DOCTYPE svg PUBLIC "-//W3C//DTD SVG 1.1//EN" "http://www.w3.org/Graphics/SVG/1.1/DTD/svg11.dtd">
<svg version="1.1" id="Calque_1" xmlns="http://www.w3.org/2000/svg" xmlns:xlink="http://www.w3.org/1999/xlink" x="0px" y="0px"
	 width="500px" height="500px" viewBox="0 0 500 500" enable-background="new 0 0 500 500" xml:space="preserve">
<g>
	<g>
		<polygon fill="#2F2583" points="291.081,335.775 394.822,275.781 424.775,223.864 276.099,309.844 		"/>
		<polygon fill="#2F2583" points="302.215,121.045 200.877,179.649 215.859,205.58 362.069,121.027 		"/>
		<path fill="#2F2583" d="M261.117,283.913l193.611-111.966l18.599-32.237c2.228-3.861,2.227-8.618-0.004-12.479
			c-0.092-0.159-0.192-0.311-0.29-0.465L246.135,257.982L261.117,283.913z"/>
		<path fill="#2F2583" d="M331.93,381.476c0.48-0.279,0.941-0.591,1.381-0.933l-2.915,1.686
			C330.924,382.012,331.437,381.762,331.93,381.476z"/>
		<path fill="#2F2583" d="M177.85,127.323c-2.228,3.862-2.226,8.618,0.004,12.479l8.041,13.918l56.467-32.655l-53.707,0.017
			C184.197,121.081,180.078,123.462,177.85,127.323z"/>
		
			<linearGradient id="SVGID_1_" gradientUnits="userSpaceOnUse" x1="473.0167" y1="103.0111" x2="5.9382" y2="105.5325" gradientTransform="matrix(0.8657 -0.5006 0.5006 0.8657 -48.4244 151.8026)">
			<stop  offset="0.5215" style="stop-color:#E6E6E6"/>
			<stop  offset="1" style="stop-color:#453E9A"/>
		</linearGradient>
		<path opacity="0.2" fill="url(#SVGID_1_)" d="M188.655,121.08c0,0-0.129,0.001-0.352,0.012c-1.077,0.031-2.131,0.199-3.141,0.494
			c-0.816,0.22-1.676,0.534-2.46,0.988c-28.018,16.203-112.138,64.688-112.138,64.688c-6.711,3.881-8.91,12.634-4.968,19.45
			c3.942,6.816,12.625,9.276,19.336,5.395l61.031-35.295l39.933-23.093l56.467-32.655L188.655,121.08z"/>
		<polygon fill="#2F2583" points="242.362,121.064 185.895,153.719 200.877,179.649 302.215,121.045 		"/>
		<linearGradient id="SVGID_2_" gradientUnits="userSpaceOnUse" x1="272.8206" y1="119.6885" x2="48.7001" y2="254.1608">
			<stop  offset="0" style="stop-color:#4F6EB1"/>
			<stop  offset="1" style="stop-color:#929DCA"/>
		</linearGradient>
		<path fill="url(#SVGID_2_)" d="M242.362,121.064l-56.467,32.655l-39.933,23.093c-6.711,3.881-8.805,12.816-4.656,19.99
			c4.149,7.174,12.937,9.816,19.648,5.935l39.922-23.087l101.338-58.604L242.362,121.064z"/>
		<polygon fill="#2F2583" points="421.922,121.008 362.069,121.027 215.859,205.58 230.841,231.511 		"/>
		
			<linearGradient id="SVGID_3_" gradientUnits="userSpaceOnUse" x1="13.8862" y1="193.8328" x2="403.9386" y2="193.8328" gradientTransform="matrix(0.8657 -0.5006 0.5006 0.8657 -48.4244 151.8026)">
			<stop  offset="0" style="stop-color:#929DCA"/>
			<stop  offset="1" style="stop-color:#2F2583"/>
		</linearGradient>
		<path fill="url(#SVGID_3_)" d="M362.069,121.027l-146.21,84.554l-71.777,41.509c-6.711,3.881-8.805,12.816-4.656,19.99
			c4.149,7.174,12.937,9.816,19.648,5.935l71.767-41.503l191.081-110.503L362.069,121.027z"/>
		<path fill="#2F2583" d="M462.515,120.995l-40.593,0.013L230.841,231.511l15.294,26.471l226.898-131.216
			C470.748,123.184,466.789,120.994,462.515,120.995z"/>
		<linearGradient id="SVGID_4_" gradientUnits="userSpaceOnUse" x1="455.3286" y1="125.1807" x2="67.4106" y2="338.2859">
			<stop  offset="0.5215" style="stop-color:#E6E6E6"/>
			<stop  offset="1" style="stop-color:#453E9A"/>
		</linearGradient>
		<path opacity="0.2" fill="url(#SVGID_4_)" d="M462.515,120.995l-40.593,0.013L230.841,231.511l-71.767,41.503l-88.576,51.224
			c-6.711,3.881-8.649,13.086-4.5,20.26c4.149,7.174,13.093,10.086,19.805,6.205l160.333-92.721l226.898-131.216
			C470.748,123.184,466.789,120.994,462.515,120.995z"/>
		<polygon fill="#2F2583" points="276.099,309.844 424.775,223.864 454.728,171.947 261.117,283.913 		"/>
		<linearGradient id="SVGID_5_" gradientUnits="userSpaceOnUse" x1="451.8936" y1="188.1458" x2="165.3813" y2="358.7654">
			<stop  offset="0" style="stop-color:#4F6EB1"/>
			<stop  offset="1" style="stop-color:#929DCA"/>
		</linearGradient>
		<path fill="url(#SVGID_5_)" d="M261.117,283.913l-100.371,58.045c-6.711,3.881-8.805,12.816-4.656,19.99
			c4.149,7.174,12.937,9.816,19.648,5.935l100.36-58.039l148.676-85.98l29.953-51.917L261.117,283.913z"/>
		<polygon fill="#2F2583" points="306.063,361.706 364.87,327.697 394.822,275.781 291.081,335.775 		"/>
		
			<linearGradient id="SVGID_6_" gradientUnits="userSpaceOnUse" x1="10.2133" y1="344.1953" x2="294.4515" y2="344.1953" gradientTransform="matrix(0.8657 -0.5006 0.5006 0.8657 -48.4244 151.8026)">
			<stop  offset="0" style="stop-color:#929DCA"/>
			<stop  offset="1" style="stop-color:#2F2583"/>
		</linearGradient>
		<path fill="url(#SVGID_6_)" d="M291.081,335.775l-71.184,41.166c-6.711,3.881-8.805,12.816-4.656,19.99
			c4.149,7.174,12.937,9.816,19.648,5.935l71.174-41.16l58.807-34.008l29.953-51.917L291.081,335.775z"/>
		<path fill="#2F2583" d="M364.87,327.697l-58.807,34.008l8.795,15.223c2.23,3.86,6.35,6.237,10.808,6.236
			c1.65-0.001,3.252-0.329,4.73-0.935l2.915-1.686c1.258-0.976,2.338-2.197,3.16-3.621L364.87,327.697z"/>
		
			<linearGradient id="SVGID_7_" gradientUnits="userSpaceOnUse" x1="458.7463" y1="374.553" x2="12.6357" y2="373.9402" gradientTransform="matrix(0.8657 -0.5006 0.5006 0.8657 -48.4244 151.8026)">
			<stop  offset="0.5215" style="stop-color:#E6E6E6"/>
			<stop  offset="1" style="stop-color:#453E9A"/>
		</linearGradient>
		<path opacity="0.2" fill="url(#SVGID_7_)" d="M306.063,361.706l-71.174,41.16l-59.411,34.358
			c-6.712,3.881-8.805,12.816-4.656,19.99c4.149,7.174,12.937,9.816,19.648,5.935l139.926-80.92l2.915-1.686
			c1.258-0.976,2.338-2.197,3.16-3.621l28.399-49.224L306.063,361.706z"/>
	</g>
	
		<ellipse transform="matrix(0.8651 -0.5017 0.5017 0.8651 1.2304 149.0409)" fill="#6B75B5" cx="277.659" cy="72.233" rx="15.03" ry="14.845"/>
	
		<ellipse transform="matrix(0.8651 -0.5017 0.5017 0.8651 48.1707 208.3262)" fill="#DCE4EC" cx="411.331" cy="14.621" rx="15.03" ry="14.845"/>
	
		<ellipse transform="matrix(0.8651 -0.5017 0.5017 0.8651 -22.7205 74.1567)" fill="#DCE4EC" cx="126.486" cy="79.312" rx="15.03" ry="14.845"/>
	
		<ellipse transform="matrix(0.8651 -0.5017 0.5017 0.8651 -154.8879 255.4394)" fill="#DCE4EC" cx="397.378" cy="415.632" rx="15.03" ry="14.845"/>
	
		<ellipse transform="matrix(0.8651 -0.5017 0.5017 0.8651 -144.2227 55.5674)" fill="#929DCA" cx="31.18" cy="295.871" rx="15.03" ry="14.845"/>
	
		<ellipse transform="matrix(0.8651 -0.5017 0.5017 0.8651 -65.7135 270.9494)" fill="#929DCA" cx="470.796" cy="257.626" rx="15.03" ry="14.845"/>
	
		<ellipse transform="matrix(0.8651 -0.5017 0.5017 0.8651 -209.3447 191.3872)" fill="#6B75B5" cx="251.087" cy="484.833" rx="15.03" ry="14.845"/>
</g>
</svg>
